<svg viewBox="0 0 1204 1024" xmlns="http://www.w3.org/2000/svg" width="16" height="16"><path d="M925.152 180.718L1049.98 60.54a35.2 35.2 0 0 0-1.602-50.138l-0.808-0.795c-14.395-12.746-36.007-12.746-51.198 0L861.93 139.337c-168.028-93.915-373.666-93.915-541.693 0L185.013 9.596c-15.202-13.529-39.212-12.734-53.607 2.397-12.806 13.528-12.806 35.02 0 49.343l124.816 119.383C126.009 277.634 48.994 429.676 48.187 591.44c0 19.89 16.805 35.008 36.008 35.008h1012.177c20.01 0 36.02-15.119 36.02-35.02-0.796-161.583-77.618-313.612-207.24-410.709zM402.36 380.766c-28.912-0.795-52.198-24.587-51.403-53.933 0.807-28.55 24.9-51.56 54.62-50.765 28.105 0.795 51.391 23.792 51.391 52.355-0.795 30.129-24.888 53.126-54.608 52.343z m399.144 0c-28.912 0.795-53.005-21.419-54.608-50.765-0.807-28.55 21.685-52.343 51.404-53.933h3.204c28.912-0.795 53.006 21.42 54.62 50.765 0.795 28.55-21.684 52.343-51.403 53.933h-3.217z m-156.691 415.9c-14.12-1.565-29.117-1.565-43.248-1.565H578.64c-0.891 10.986 0 22.768 0 33.755v14.143h19.395c15.902 0.783 31.78 0 47.657-2.362 14.119-4.71 20.299-18.84 14.998-31.405-2.65-5.494-8.818-10.204-15.877-12.565z m-251.295 70.27h35.345c-6.42-14.276-12.047-29.346-17.672-44.417-5.614 15.07-12.047 30.141-17.66 44.416z m714.78-168.197H96.374C44.175 697.932 0.807 739.59 0 792.463v137.802c0.807 52.066 44.175 94.53 96.374 93.723h1011.924c52.198 0.808 95.567-40.85 96.374-92.928V791.68c-0.807-52.078-44.176-93.724-96.374-92.929z m-594.3 261.787c-1.615 2.386-3.217 3.169-5.627 3.976-9.637 0.783-20.081 1.566-29.719 0.783h-3.204c-3.217 0-5.626-1.59-7.228-4.759-4.024-9.517-8.035-18.238-11.252-27.755-3.204-8.722-6.42-17.456-10.432-25.383-11.252-0.795-21.684-0.795-33.731-0.795h-33.73c-2.41 5.554-4.025 11.107-6.434 16.66a451.595 451.595 0 0 1-13.649 34.9 9.613 9.613 0 0 1-4.011 3.963c-4.82 2.374-10.445 3.169-15.264 3.169h-8.035c-3.204 0-6.42-0.795-10.432 0-2.41 0-4.819-0.795-6.433-2.373a6.12 6.12 0 0 1-1.602-6.349c2.409-7.939 4.818-15.866 8.83-23.792l4.819-11.902c8.035-19.83 16.07-39.658 24.093-58.692 12.854-30.924 25.708-63.45 39.357-95.17a9.613 9.613 0 0 1 4.011-3.975c7.228-3.168 15.263-3.963 23.299-2.373 3.204 0 5.613 0.795 8.83 0 3.216 0 6.42 1.59 8.035 4.759 24.093 54.728 48.982 113.42 81.918 189.555-0.808 1.59-1.615 3.975-2.41 5.553z m154.197-77.038c-22.72 4.722-42.091 9.589-64.811 8.01h-12.167l-0.181 24.576c0 11.818 0.639 28.117-0.18 40.718 0 3.94-7.831 7.011-11.89 7.011H550.57c-4.048 0-8.107-3.156-8.107-7.879 0-55.896-0.807-122.84 0-188.976 0-3.94 4.06-7.879 8.107-7.879h85.99a84.423 84.423 0 0 1 54.33 17.323c17.046 16.54 23.54 40.164 17.854 62.21-4.048 21.262-20.275 37.79-40.55 44.886z m246.753 74.798c-1.626 2.337-4.048 3.903-6.469 3.903-12.938 0.783-25.057 0.783-37.188 0.783-2.434 0-4.855-0.783-6.47-3.132a1749.171 1749.171 0 0 1-34.766-46.898c-9.71-12.505-19.407-25.78-29.105-38.297l-7.276 7.036c-4.048 3.903-8.903 7.818-12.938 11.721l-0.807 0.783v23.455c0.807 13.288 0 25.792-0.82 39.08 0 3.903-4.035 7.035-8.07 7.035h-27.516c-4.035 0-8.07-3.132-8.07-7.818a7314.49 7314.49 0 0 1 0-188.375c0-3.915 4.035-7.83 8.07-7.83h27.491c4.048 0 8.083 3.132 8.083 7.047 0.82 24.226 1.627 48.464 0.82 71.919 17.78-17.203 35.573-33.61 53.366-50.813 9.698-8.602 18.589-17.203 28.286-26.575a7.469 7.469 0 0 1 5.662-2.35h1.614c11.324 0 23.443 0 35.574 0.784 2.434 0 5.662 1.566 6.47 3.903a6.903 6.903 0 0 1 0 7.83 79.508 79.508 0 0 1-10.505 12.493c-10.517 8.601-20.215 18.768-30.72 28.14l-36.38 32.828c9.697 12.517 20.202 25.804 29.9 38.309 16.985 21.889 34.766 44.548 51.752 67.22a12.89 12.89 0 0 1 0 7.819z" fill="#3DDC84"/></svg>
